<svg xmlns="http://www.w3.org/2000/svg" width="1920" height="1080" viewBox="0 0 1920 1080">
  <defs>
    <linearGradient id="hero-gradient" x1="0%" y1="0%" x2="100%" y2="100%">
      <stop offset="0%" stop-color="#111827" />
      <stop offset="50%" stop-color="#4f46e5" stop-opacity="0.8" />
      <stop offset="100%" stop-color="#db2777" stop-opacity="0.8" />
    </linearGradient>
    <filter id="blur" x="-50%" y="-50%" width="200%" height="200%">
      <feGaussianBlur in="SourceGraphic" stdDeviation="50" />
    </filter>
  </defs>
  
  <!-- Background -->
  <rect width="100%" height="100%" fill="url(#hero-gradient)" />
  
  <!-- Abstract Shapes -->
  <g opacity="0.3" filter="url(#blur)">
    <circle cx="400" cy="300" r="250" fill="#4f46e5" />
    <circle cx="1600" cy="800" r="300" fill="#db2777" />
    <circle cx="1000" cy="500" r="400" fill="#6d28d9" />
    <circle cx="200" cy="900" r="200" fill="#8b5cf6" />
    <circle cx="1800" cy="200" r="180" fill="#ec4899" />
  </g>
  
  <!-- Hexagon Pattern -->
  <g opacity="0.1" stroke="#ffffff" stroke-width="1">
    <!-- Row 1 -->
    <polygon points="100,100 150,130 150,190 100,220 50,190 50,130" />
    <polygon points="200,100 250,130 250,190 200,220 150,190 150,130" />
    <polygon points="300,100 350,130 350,190 300,220 250,190 250,130" />
    <polygon points="400,100 450,130 450,190 400,220 350,190 350,130" />
    <polygon points="500,100 550,130 550,190 500,220 450,190 450,130" />
    
    <!-- Row 2 -->
    <polygon points="150,250 200,280 200,340 150,370 100,340 100,280" />
    <polygon points="250,250 300,280 300,340 250,370 200,340 200,280" />
    <polygon points="350,250 400,280 400,340 350,370 300,340 300,280" />
    <polygon points="450,250 500,280 500,340 450,370 400,340 400,280" />
    <polygon points="550,250 600,280 600,340 550,370 500,340 500,280" />
    
    <!-- Row 3 -->
    <polygon points="100,400 150,430 150,490 100,520 50,490 50,430" />
    <polygon points="200,400 250,430 250,490 200,520 150,490 150,430" />
    <polygon points="300,400 350,430 350,490 300,520 250,490 250,430" />
    <polygon points="400,400 450,430 450,490 400,520 350,490 350,430" />
    <polygon points="500,400 550,430 550,490 500,520 450,490 450,430" />
  </g>
  
  <!-- More hexagons on the right side -->
  <g opacity="0.1" stroke="#ffffff" stroke-width="1">
    <!-- Row 1 -->
    <polygon points="1100,100 1150,130 1150,190 1100,220 1050,190 1050,130" />
    <polygon points="1200,100 1250,130 1250,190 1200,220 1150,190 1150,130" />
    <polygon points="1300,100 1350,130 1350,190 1300,220 1250,190 1250,130" />
    <polygon points="1400,100 1450,130 1450,190 1400,220 1350,190 1350,130" />
    <polygon points="1500,100 1550,130 1550,190 1500,220 1450,190 1450,130" />
    
    <!-- Row 2 -->
    <polygon points="1150,250 1200,280 1200,340 1150,370 1100,340 1100,280" />
    <polygon points="1250,250 1300,280 1300,340 1250,370 1200,340 1200,280" />
    <polygon points="1350,250 1400,280 1400,340 1350,370 1300,340 1300,280" />
    <polygon points="1450,250 1500,280 1500,340 1450,370 1400,340 1400,280" />
    <polygon points="1550,250 1600,280 1600,340 1550,370 1500,340 1500,280" />
    
    <!-- Row 3 -->
    <polygon points="1100,400 1150,430 1150,490 1100,520 1050,490 1050,430" />
    <polygon points="1200,400 1250,430 1250,490 1200,520 1150,490 1150,430" />
    <polygon points="1300,400 1350,430 1350,490 1300,520 1250,490 1250,430" />
    <polygon points="1400,400 1450,430 1450,490 1400,520 1350,490 1350,430" />
    <polygon points="1500,400 1550,430 1550,490 1500,520 1450,490 1450,430" />
  </g>
  
  <!-- Bottom hexagons -->
  <g opacity="0.1" stroke="#ffffff" stroke-width="1">
    <!-- Row 1 -->
    <polygon points="100,700 150,730 150,790 100,820 50,790 50,730" />
    <polygon points="200,700 250,730 250,790 200,820 150,790 150,730" />
    <polygon points="300,700 350,730 350,790 300,820 250,790 250,730" />
    <polygon points="400,700 450,730 450,790 400,820 350,790 350,730" />
    <polygon points="500,700 550,730 550,790 500,820 450,790 450,730" />
    
    <!-- Row 2 -->
    <polygon points="150,850 200,880 200,940 150,970 100,940 100,880" />
    <polygon points="250,850 300,880 300,940 250,970 200,940 200,880" />
    <polygon points="350,850 400,880 400,940 350,970 300,940 300,880" />
    <polygon points="450,850 500,880 500,940 450,970 400,940 400,880" />
    <polygon points="550,850 600,880 600,940 550,970 500,940 500,880" />
  </g>
  
  <!-- Bottom right hexagons -->
  <g opacity="0.1" stroke="#ffffff" stroke-width="1">
    <!-- Row 1 -->
    <polygon points="1100,700 1150,730 1150,790 1100,820 1050,790 1050,730" />
    <polygon points="1200,700 1250,730 1250,790 1200,820 1150,790 1150,730" />
    <polygon points="1300,700 1350,730 1350,790 1300,820 1250,790 1250,730" />
    <polygon points="1400,700 1450,730 1450,790 1400,820 1350,790 1350,730" />
    <polygon points="1500,700 1550,730 1550,790 1500,820 1450,790 1450,730" />
    
    <!-- Row 2 -->
    <polygon points="1150,850 1200,880 1200,940 1150,970 1100,940 1100,880" />
    <polygon points="1250,850 1300,880 1300,940 1250,970 1200,940 1200,880" />
    <polygon points="1350,850 1400,880 1400,940 1350,970 1300,940 1300,880" />
    <polygon points="1450,850 1500,880 1500,940 1450,970 1400,940 1400,880" />
    <polygon points="1550,850 1600,880 1600,940 1550,970 1500,940 1500,880" />
  </g>
</svg>