<svg xmlns="http://www.w3.org/2000/svg" width="600" height="400" viewBox="0 0 600 400">
  <defs>
    <linearGradient id="bg-gradient" x1="0%" y1="0%" x2="100%" y2="100%">
      <stop offset="0%" stop-color="#10b981" />
      <stop offset="100%" stop-color="#3b82f6" />
    </linearGradient>
  </defs>
  
  <!-- Background -->
  <rect width="100%" height="100%" fill="url(#bg-gradient)" />
  
  <!-- Social media app mockup -->
  <rect x="150" y="60" width="300" height="280" rx="8" fill="#f9fafb" opacity="0.9" />
  
  <!-- Header -->
  <rect x="150" y="60" width="300" height="50" rx="8" fill="#1f2937" opacity="0.8" />
  
  <!-- Profile picture -->
  <circle cx="180" cy="85" r="15" fill="#f9fafb" opacity="0.5" />
  
  <!-- Header text -->
  <rect x="210" y="75" width="100" height="20" rx="4" fill="#f9fafb" opacity="0.3" />
  
  <!-- Post 1 -->
  <rect x="170" y="130" width="260" height="80" rx="4" fill="#1f2937" opacity="0.1" />
  <circle cx="190" cy="150" r="10" fill="#1f2937" opacity="0.3" />
  <rect x="210" y="145" width="200" height="10" rx="2" fill="#1f2937" opacity="0.3" />
  <rect x="210" y="165" width="180" height="10" rx="2" fill="#1f2937" opacity="0.3" />
  <rect x="210" y="185" width="160" height="10" rx="2" fill="#1f2937" opacity="0.3" />
  
  <!-- Post 2 -->
  <rect x="170" y="230" width="260" height="80" rx="4" fill="#1f2937" opacity="0.1" />
  <circle cx="190" cy="250" r="10" fill="#1f2937" opacity="0.3" />
  <rect x="210" y="245" width="200" height="10" rx="2" fill="#1f2937" opacity="0.3" />
  <rect x="210" y="265" width="180" height="10" rx="2" fill="#1f2937" opacity="0.3" />
  <rect x="210" y="285" width="160" height="10" rx="2" fill="#1f2937" opacity="0.3" />
  
  <!-- Project title -->
  <text x="300" y="380" font-family="Arial, sans-serif" font-size="24" font-weight="bold" fill="#ffffff" text-anchor="middle">Social Media Platform</text>
</svg>