<svg xmlns="http://www.w3.org/2000/svg" width="600" height="400" viewBox="0 0 600 400">
  <defs>
    <linearGradient id="bg-gradient" x1="0%" y1="0%" x2="100%" y2="100%">
      <stop offset="0%" stop-color="#db2777" />
      <stop offset="100%" stop-color="#9333ea" />
    </linearGradient>
  </defs>
  
  <!-- Background -->
  <rect width="100%" height="100%" fill="url(#bg-gradient)" />
  
  <!-- Dashboard mockup -->
  <rect x="100" y="80" width="400" height="240" rx="8" fill="#f9fafb" opacity="0.9" />
  
  <!-- Sidebar -->
  <rect x="100" y="80" width="80" height="240" rx="8" fill="#1f2937" opacity="0.8" />
  
  <!-- Sidebar icons -->
  <circle cx="140" cy="110" r="10" fill="#f9fafb" opacity="0.5" />
  <circle cx="140" cy="150" r="10" fill="#f9fafb" opacity="0.5" />
  <circle cx="140" cy="190" r="10" fill="#f9fafb" opacity="0.5" />
  <circle cx="140" cy="230" r="10" fill="#f9fafb" opacity="0.5" />
  <circle cx="140" cy="270" r="10" fill="#f9fafb" opacity="0.5" />
  
  <!-- Dashboard content -->
  <rect x="200" y="100" width="280" height="60" rx="4" fill="#1f2937" opacity="0.2" />
  
  <!-- Charts -->
  <rect x="200" y="180" width="130" height="120" rx="4" fill="#1f2937" opacity="0.2" />
  <rect x="350" y="180" width="130" height="120" rx="4" fill="#1f2937" opacity="0.2" />
  
  <!-- Chart elements -->
  <path d="M220,260 L240,230 L260,250 L280,210 L300,240" stroke="#9333ea" stroke-width="3" fill="none" />
  <path d="M370,260 C380,240 390,220 400,260 C410,230 420,250 430,220 C440,240 450,230 460,260" stroke="#db2777" stroke-width="3" fill="none" />
  
  <!-- Project title -->
  <text x="300" y="380" font-family="Arial, sans-serif" font-size="24" font-weight="bold" fill="#ffffff" text-anchor="middle">Analytics Dashboard</text>
</svg>