<svg xmlns="http://www.w3.org/2000/svg" width="600" height="400" viewBox="0 0 600 400">
  <defs>
    <linearGradient id="bg-gradient" x1="0%" y1="0%" x2="100%" y2="100%">
      <stop offset="0%" stop-color="#f59e0b" />
      <stop offset="100%" stop-color="#ef4444" />
    </linearGradient>
  </defs>
  
  <!-- Background -->
  <rect width="100%" height="100%" fill="url(#bg-gradient)" />
  
  <!-- Food delivery app mockup -->
  <rect x="150" y="60" width="300" height="280" rx="8" fill="#f9fafb" opacity="0.9" />
  
  <!-- Header -->
  <rect x="150" y="60" width="300" height="50" rx="8" fill="#1f2937" opacity="0.8" />
  
  <!-- Search bar -->
  <rect x="170" y="75" width="200" height="20" rx="10" fill="#f9fafb" opacity="0.3" />
  <circle cx="390" cy="85" r="10" fill="#f9fafb" opacity="0.5" />
  
  <!-- Food item 1 -->
  <rect x="170" y="130" width="260" height="70" rx="4" fill="#1f2937" opacity="0.1" />
  <rect x="180" y="140" width="50" height="50" rx="4" fill="#ef4444" opacity="0.3" />
  <rect x="240" y="145" width="120" height="10" rx="2" fill="#1f2937" opacity="0.3" />
  <rect x="240" y="165" width="80" height="10" rx="2" fill="#1f2937" opacity="0.3" />
  <circle cx="400" cy="165" r="15" fill="#f59e0b" opacity="0.5" />
  
  <!-- Food item 2 -->
  <rect x="170" y="210" width="260" height="70" rx="4" fill="#1f2937" opacity="0.1" />
  <rect x="180" y="220" width="50" height="50" rx="4" fill="#10b981" opacity="0.3" />
  <rect x="240" y="225" width="120" height="10" rx="2" fill="#1f2937" opacity="0.3" />
  <rect x="240" y="245" width="80" height="10" rx="2" fill="#1f2937" opacity="0.3" />
  <circle cx="400" cy="245" r="15" fill="#f59e0b" opacity="0.5" />
  
  <!-- Bottom navigation -->
  <rect x="150" y="340" width="300" height="0" rx="0" fill="#1f2937" opacity="0.8" />
  <circle cx="200" cy="340" r="10" fill="#f9fafb" opacity="0.5" />
  <circle cx="300" cy="340" r="10" fill="#f9fafb" opacity="0.5" />
  <circle cx="400" cy="340" r="10" fill="#f9fafb" opacity="0.5" />
  
  <!-- Project title -->
  <text x="300" y="380" font-family="Arial, sans-serif" font-size="24" font-weight="bold" fill="#ffffff" text-anchor="middle">Food Delivery App</text>
</svg>