<svg xmlns="http://www.w3.org/2000/svg" width="120" height="120" viewBox="0 0 120 120">
  <defs>
    <linearGradient id="icon-gradient" x1="0%" y1="0%" x2="100%" y2="100%">
      <stop offset="0%" stop-color="#8b5cf6" />
      <stop offset="100%" stop-color="#ec4899" />
    </linearGradient>
  </defs>
  
  <!-- Background circle -->
  <circle cx="60" cy="60" r="60" fill="url(#icon-gradient)" opacity="0.1" />
  
  <!-- Social media management icon - Network of people -->
  <circle cx="60" cy="40" r="15" stroke="url(#icon-gradient)" stroke-width="3" fill="none" />
  <circle cx="30" cy="80" r="15" stroke="url(#icon-gradient)" stroke-width="3" fill="none" />
  <circle cx="90" cy="80" r="15" stroke="url(#icon-gradient)" stroke-width="3" fill="none" />
  
  <!-- Person silhouettes -->
  <circle cx="60" cy="35" r="5" fill="url(#icon-gradient)" />
  <path d="M55,40 C55,45 65,45 65,40" stroke="url(#icon-gradient)" stroke-width="2" fill="none" />
  
  <circle cx="30" cy="75" r="5" fill="url(#icon-gradient)" />
  <path d="M25,80 C25,85 35,85 35,80" stroke="url(#icon-gradient)" stroke-width="2" fill="none" />
  
  <circle cx="90" cy="75" r="5" fill="url(#icon-gradient)" />
  <path d="M85,80 C85,85 95,85 95,80" stroke="url(#icon-gradient)" stroke-width="2" fill="none" />
  
  <!-- Connection lines -->
  <line x1="48" y1="50" x2="38" y2="68" stroke="url(#icon-gradient)" stroke-width="2" />
  <line x1="72" y1="50" x2="82" y2="68" stroke="url(#icon-gradient)" stroke-width="2" />
  <line x1="42" y1="80" x2="78" y2="80" stroke="url(#icon-gradient)" stroke-width="2" />
</svg>