<svg xmlns="http://www.w3.org/2000/svg" width="120" height="120" viewBox="0 0 120 120">
  <defs>
    <linearGradient id="icon-gradient" x1="0%" y1="0%" x2="100%" y2="100%">
      <stop offset="0%" stop-color="#10b981" />
      <stop offset="100%" stop-color="#3b82f6" />
    </linearGradient>
  </defs>
  
  <!-- Background circle -->
  <circle cx="60" cy="60" r="60" fill="url(#icon-gradient)" opacity="0.1" />
  
  <!-- Email automation icon -->
  <rect x="25" y="35" width="70" height="50" rx="5" stroke="url(#icon-gradient)" stroke-width="3" fill="none" />
  
  <!-- Email flap -->
  <path d="M25,35 L60,55 L95,35" stroke="url(#icon-gradient)" stroke-width="3" fill="none" />
  
  <!-- Automation gears -->
  <circle cx="40" cy="75" r="10" stroke="url(#icon-gradient)" stroke-width="3" fill="none" />
  <path d="M40,65 L40,60 M40,85 L40,90 M30,75 L25,75 M50,75 L55,75 M33,68 L29,64 M47,68 L51,64 M33,82 L29,86 M47,82 L51,86" stroke="url(#icon-gradient)" stroke-width="2" />
  
  <circle cx="80" cy="75" r="10" stroke="url(#icon-gradient)" stroke-width="3" fill="none" />
  <path d="M80,65 L80,60 M80,85 L80,90 M70,75 L65,75 M90,75 L95,75 M73,68 L69,64 M87,68 L91,64 M73,82 L69,86 M87,82 L91,86" stroke="url(#icon-gradient)" stroke-width="2" />
  
  <!-- Connection line between gears -->
  <line x1="50" y1="75" x2="70" y2="75" stroke="url(#icon-gradient)" stroke-width="2" stroke-dasharray="4 2" />
</svg>